<svg viewBox="0 0 160 40" xmlns="http://www.w3.org/2000/svg">
  <defs>
    <linearGradient id="saffron-gradient" x1="0%" y1="0%" x2="100%" y2="0%">
      <stop offset="0%" style="stop-color:#c9730f"/>
      <stop offset="100%" style="stop-color:#e8961c"/>
    </linearGradient>
  </defs>
  
  <!-- Brand Symbol -->
  <g transform="translate(4, 4)">
    <circle cx="16" cy="16" r="14" fill="none" stroke="url(#saffron-gradient)" stroke-width="1.5"/>
    <circle cx="16" cy="16" r="9" fill="none" stroke="#c9730f" stroke-width="0.75" opacity="0.5"/>
    <g stroke="#c9730f" stroke-width="0.75" opacity="0.5">
      <line x1="16" y1="2" x2="16" y2="6"/>
      <line x1="16" y1="26" x2="16" y2="30"/>
      <line x1="2" y1="16" x2="6" y2="16"/>
      <line x1="26" y1="16" x2="30" y2="16"/>
      <line x1="6.1" y1="6.1" x2="9" y2="9"/>
      <line x1="23" y1="23" x2="25.9" y2="25.9"/>
      <line x1="25.9" y1="6.1" x2="23" y2="9"/>
      <line x1="9" y1="23" x2="6.1" y2="25.9"/>
    </g>
    <circle cx="16" cy="16" r="3" fill="#c9730f"/>
    <path d="M16 10 Q20 13 20 16 Q20 19 16 21 Q13 19 13 16 Q13 13 16 10" 
          fill="none" stroke="#2a3f7c" stroke-width="1" stroke-linecap="round"/>
  </g>
  
  <!-- Wordmark -->
  <text x="48" y="27" 
        font-family="system-ui, -apple-system, sans-serif" 
        font-size="18" 
        font-weight="600" 
        fill="#e8e4df"
        letter-spacing="-0.02em">
    Odialang
  </text>
</svg>
